<svg xmlns="http://www.w3.org/2000/svg" width="29.099" height="34.39" viewBox="0 0 29.099 34.39">
  <g id="android-logo_1_" data-name="android-logo (1)" transform="translate(0)">
    <g id="Group_372" data-name="Group 372" transform="translate(0 0)">
      <path id="Path_333" data-name="Path 333" d="M44.673,179.141a2.053,2.053,0,0,0-1.509.62,2.029,2.029,0,0,0-.62,1.488v8.887a2.117,2.117,0,0,0,2.129,2.129,2.021,2.021,0,0,0,1.5-.62,2.072,2.072,0,0,0,.61-1.509v-8.887a2.117,2.117,0,0,0-2.108-2.108Z" transform="translate(-42.544 -168.001)" fill="#fff"/>
      <path id="Path_334" data-name="Path 334" d="M136.911,3.162,138.378.455a.272.272,0,0,0-.1-.413.286.286,0,0,0-.413.124l-1.488,2.729a10.366,10.366,0,0,0-8.309,0L126.578.165a.287.287,0,0,0-.413-.124.272.272,0,0,0-.1.413l1.467,2.707a9.062,9.062,0,0,0-3.555,3.173,8.013,8.013,0,0,0-1.323,4.454h19.117a8.015,8.015,0,0,0-1.323-4.454A9.1,9.1,0,0,0,136.911,3.162ZM128.427,7.1a.775.775,0,0,1-.569.238A.74.74,0,0,1,127.3,7.1a.824.824,0,0,1,0-1.136.742.742,0,0,1,.558-.237.8.8,0,0,1,.569,1.374Zm8.711,0a.741.741,0,0,1-.558.238.806.806,0,0,1,0-1.612.743.743,0,0,1,.558.237.824.824,0,0,1,0,1.136Z" transform="translate(-117.67 0)" fill="#fff"/>
      <path id="Path_335" data-name="Path 335" d="M123.971,199.215a2.257,2.257,0,0,0,2.273,2.273h1.529l.021,4.692a2.054,2.054,0,0,0,.62,1.509,2.03,2.03,0,0,0,1.488.62,2.117,2.117,0,0,0,2.129-2.129v-4.692h2.852v4.692a2.128,2.128,0,1,0,4.257,0v-4.692h1.55a2.257,2.257,0,0,0,2.253-2.273V185.45H123.971Z" transform="translate(-118.908 -173.918)" fill="#fff"/>
      <path id="Path_336" data-name="Path 336" d="M444.484,179.141a2.048,2.048,0,0,0-1.488.61,2.021,2.021,0,0,0-.62,1.5v8.887a2.052,2.052,0,0,0,.62,1.509,2.03,2.03,0,0,0,1.488.62,2.117,2.117,0,0,0,2.128-2.129v-8.887a2.021,2.021,0,0,0-.62-1.5A2.073,2.073,0,0,0,444.484,179.141Z" transform="translate(-417.513 -168.001)" fill="#fff"/>
    </g>
  </g>
</svg>
