<svg id="apple" xmlns="http://www.w3.org/2000/svg" width="28.919" height="33.857" viewBox="0 0 28.919 33.857">
  <g id="Group_374" data-name="Group 374" transform="translate(13.899)">
    <g id="Group_373" data-name="Group 373">
      <path id="Path_337" data-name="Path 337" d="M254.429,0a7.945,7.945,0,0,0-5.144,2.785A6.9,6.9,0,0,0,247.6,8.147,6.706,6.706,0,0,0,252.791,5.5,7.449,7.449,0,0,0,254.429,0Z" transform="translate(-247.522)" fill="#fff"/>
    </g>
  </g>
  <g id="Group_376" data-name="Group 376" transform="translate(0 7.925)">
    <g id="Group_375" data-name="Group 375">
      <path id="Path_338" data-name="Path 338" d="M65.275,123.274a8.571,8.571,0,0,0-6.469-3.434c-3.037,0-4.321,1.454-6.431,1.454-2.175,0-3.828-1.449-6.454-1.449a8.782,8.782,0,0,0-7.068,4.272c-2.448,3.8-2.029,10.934,1.938,17.013,1.42,2.175,3.316,4.621,5.8,4.643,2.207.021,2.829-1.416,5.819-1.43s3.557,1.449,5.76,1.426c2.482-.019,4.482-2.73,5.9-4.905a24.393,24.393,0,0,0,2.186-4.105A7.464,7.464,0,0,1,65.275,123.274Z" transform="translate(-37.336 -119.84)" fill="#fff"/>
    </g>
  </g>
</svg>
