<svg xmlns="http://www.w3.org/2000/svg" width="47" height="47" viewBox="0 0 47 47">
  <g id="Solid" transform="translate(-24 -24)">
    <path id="Path_331" data-name="Path 331" d="M151.371,60.564a2.431,2.431,0,0,0,3.438,0l9.168-9.168a2.431,2.431,0,0,0-3.438-3.438l-5.018,5.018V26.431a2.431,2.431,0,0,0-4.862,0V52.976l-5.018-5.018A2.431,2.431,0,1,0,142.2,51.4Z" transform="translate(-105.59)" fill="#7b7b7b"/>
    <path id="Path_332" data-name="Path 332" d="M68.569,232a2.431,2.431,0,0,0-2.431,2.431v18.638H28.862V234.431a2.431,2.431,0,0,0-4.862,0v19.448a4.052,4.052,0,0,0,4.052,4.052h38.9A4.052,4.052,0,0,0,71,253.879V234.431A2.431,2.431,0,0,0,68.569,232Z" transform="translate(0 -186.931)" fill="#7b7b7b"/>
  </g>
</svg>
