<?xml version="1.0" encoding="UTF-8" standalone="no"?>
<svg
   xmlns:dc="http://purl.org/dc/elements/1.1/"
   xmlns:cc="http://creativecommons.org/ns#"
   xmlns:rdf="http://www.w3.org/1999/02/22-rdf-syntax-ns#"
   xmlns:svg="http://www.w3.org/2000/svg"
   xmlns="http://www.w3.org/2000/svg"
   xmlns:sodipodi="http://sodipodi.sourceforge.net/DTD/sodipodi-0.dtd"
   xmlns:inkscape="http://www.inkscape.org/namespaces/inkscape"
   width="210mm"
   height="297mm"
   viewBox="0 0 210 297"
   version="1.1"
   id="svg8"
   inkscape:version="1.0.2 (e86c8708, 2021-01-15)"
   sodipodi:docname="drawing.svg">
  <defs
     id="defs2" />
  <sodipodi:namedview
     id="base"
     pagecolor="#ffffff"
     bordercolor="#666666"
     borderopacity="1.0"
     inkscape:pageopacity="0.0"
     inkscape:pageshadow="2"
     inkscape:zoom="0.64929458"
     inkscape:cx="151.96666"
     inkscape:cy="572.33519"
     inkscape:document-units="mm"
     inkscape:current-layer="layer1"
     inkscape:document-rotation="0"
     showgrid="false"
     inkscape:window-width="1280"
     inkscape:window-height="1024"
     inkscape:window-x="0"
     inkscape:window-y="37"
     inkscape:window-maximized="0" />
  <metadata
     id="metadata5">
    <rdf:RDF>
      <cc:Work
         rdf:about="">
        <dc:format>image/svg+xml</dc:format>
        <dc:type
           rdf:resource="http://purl.org/dc/dcmitype/StillImage" />
        <dc:title></dc:title>
      </cc:Work>
    </rdf:RDF>
  </metadata>
  <g
     inkscape:label="Layer 1"
     inkscape:groupmode="layer"
     id="layer1">
    <path
       style="fill:none;stroke:#000000;stroke-width:0.264583px;stroke-linecap:butt;stroke-linejoin:miter;stroke-opacity:1"
       d="m 0,225.7514 c 0,0 24.469116,-60.18274 74.571312,-17.52221 19.892259,16.93766 21.4749,31.13847 72.941338,34.22945 17.98787,1.08032 38.18899,2.03087 61.93901,11.81731 l 0.49986,9.79063 -0.0924,33.40369 -210.26665352,-0.40751 z"
       id="path10"
       sodipodi:nodetypes="cssccccc" />
    <path
       style="fill:#f9f9f9;stroke:none;stroke-width:1.54013;fill-opacity:1"
       d="M 359.32613,1122.5477 -0.08333641,1122.1561 0.55733334,987.78281 1.1980031,853.40946 6.9234821,842.21806 C 20.666606,815.35485 34.043554,796.64864 53.807244,776.65621 c 49.107206,-49.67555 106.264686,-59.041 169.005526,-27.69212 30.14031,15.05981 52.97496,32.86503 95.48825,74.4566 16.94146,16.57416 34.26796,32.95736 38.50332,36.40712 36.97619,30.11753 84.35321,46.26132 159.57451,54.37525 7.95329,0.85792 34.55926,2.94683 59.12438,4.64206 86.43038,5.9645 127.44234,12.95202 180.96562,30.83246 35.65739,11.91202 33.25047,10.32907 34.4123,22.63182 0.54387,5.75917 0.99379,42.1787 0.99981,80.9323 l 0.011,70.4611 -36.57816,-0.3818 c -20.11798,-0.2099 -198.31242,-0.5579 -395.98762,-0.7733 z"
       id="path12"
       transform="scale(0.26458333)"
       inkscape:export-xdpi="96"
       inkscape:export-ydpi="96" />
  </g>
</svg>
